<?xml version="1.0" encoding="UTF-8"?>
<svg width="112px" height="31px" viewBox="0 0 112 31" version="1.1" xmlns="http://www.w3.org/2000/svg" xmlns:xlink="http://www.w3.org/1999/xlink">
    <!-- Generator: Sketch 55.1 (78136) - https://sketchapp.com -->
    <title>logo-olumo</title>
    <desc>Created with Sketch.</desc>
    <defs>
        <path d="M15.655914,31 C7.00939144,31 0,24.0604136 0,15.5 C0,6.93958638 7.00939144,0 15.655914,0 C24.3024365,0 31.311828,6.93958638 31.311828,15.5 C31.311828,24.0604136 24.3024365,31 15.655914,31 Z M15.655914,22.6538462 C19.6466167,22.6538462 22.8817204,19.4509601 22.8817204,15.5 C22.8817204,11.5490399 19.6466167,8.34615385 15.655914,8.34615385 C11.6652113,8.34615385 8.43010753,11.5490399 8.43010753,15.5 C8.43010753,19.4509601 11.6652113,22.6538462 15.655914,22.6538462 Z" id="path-1"></path>
    </defs>
    <g id="Home-Page" stroke="none" stroke-width="1" fill="none" fill-rule="evenodd">
        <g id="HomePage" transform="translate(-61.000000, -40.000000)">
            <g id="logo-olumo" transform="translate(61.000000, 40.000000)">
                <g id="Path-5">
                    <mask id="mask-2" fill="white">
                        <use xlink:href="#path-1"></use>
                    </mask>
                    <use id="Mask" fill="#8C5DDB" fill-rule="nonzero" xlink:href="#path-1"></use>
                    <polygon id="Path-3" fill="#5D369E" fill-rule="nonzero" mask="url(#mask-2)" points="10.6734711 19.5570498 19.2688172 37.6438552 39.0909778 19.5570498 19.2688172 9.97859075"></polygon>
                </g>
                <path d="M59.597081,16.0204908 C59.597081,20.7165075 55.8024779,24.1445997 51.0829404,24.1445997 C46.3634029,24.1445997 42.5925161,20.7165075 42.5925161,16.0204908 C42.5925161,11.2775139 46.4108354,7.80246154 51.0829404,7.80246154 C55.7550454,7.80246154 59.597081,11.2775139 59.597081,16.0204908 Z M51.1066567,20.7634677 C53.6205812,20.7634677 55.6838966,18.7676606 55.6838966,15.9735306 C55.6838966,13.1794007 53.6205812,11.1601135 51.1066567,11.1601135 C48.5690159,11.1601135 46.5294168,13.1794007 46.5294168,15.9735306 C46.5294168,18.7676606 48.5690159,20.7634677 51.1066567,20.7634677 Z M64.4826324,23.9567591 L61.7552615,23.9567591 C61.5180988,23.9567591 61.3283686,23.7454383 61.3283686,23.5106375 L61.3283686,8.4364238 C61.3283686,8.20162296 61.5180988,7.99030221 61.7552615,7.99030221 L64.4826324,7.99030221 C64.7197951,7.99030221 64.9332415,8.20162296 64.9332415,8.4364238 L64.9332415,23.5106375 C64.9332415,23.7454383 64.7197951,23.9567591 64.4826324,23.9567591 Z M77.2894176,23.9567591 L74.6806281,23.9567591 C74.4434654,23.9567591 74.2300189,23.7454383 74.2300189,23.5106375 L74.2300189,22.4775138 C73.8505586,23.1584362 72.7596103,24.1445997 71.0046064,24.1445997 C68.5618307,24.1445997 67.0439894,22.6418744 67.0439894,20.0590652 L67.0439894,12.5454384 C67.0439894,12.3106376 67.2574359,12.0993168 67.4945986,12.0993168 L70.1982532,12.0993168 C70.4354159,12.0993168 70.6251461,12.3106376 70.6251461,12.5454384 L70.6251461,19.4016228 C70.6251461,20.5991071 71.3603504,21.0921889 72.3327174,21.0921889 C73.1627868,21.0921889 74.1114376,20.5991071 74.1114376,19.448583 L74.1114376,12.5454384 C74.1114376,12.3106376 74.324884,12.0993168 74.5620467,12.0993168 L77.2894176,12.0993168 C77.5265803,12.0993168 77.7163105,12.3106376 77.7163105,12.5454384 L77.7163105,23.5106375 C77.7163105,23.7454383 77.5265803,23.9567591 77.2894176,23.9567591 Z M96.5944606,23.9567591 L93.8670897,23.9567591 C93.629927,23.9567591 93.4401968,23.7454383 93.4401968,23.5106375 L93.4401968,16.7483734 C93.4401968,15.527409 92.6812762,15.0812875 91.8749231,15.0812875 C90.8551235,15.0812875 90.2147842,15.7152497 90.2147842,16.8892539 L90.2147842,23.5106375 C90.2147842,23.7454383 90.0013378,23.9567591 89.7641751,23.9567591 L87.0368042,23.9567591 C86.7996415,23.9567591 86.6099114,23.7454383 86.6099114,23.5106375 L86.6099114,16.7483734 C86.6099114,15.527409 85.8509907,15.0812875 85.0446376,15.0812875 C84.2382845,15.0812875 83.3844988,15.5508891 83.3844988,16.7014132 L83.3844988,23.5106375 C83.3844988,23.7454383 83.1710523,23.9567591 82.9338897,23.9567591 L80.230235,23.9567591 C79.9930723,23.9567591 79.8033422,23.7454383 79.8033422,23.5106375 L79.8033422,12.5454384 C79.8033422,12.3106376 79.9930723,12.0993168 80.230235,12.0993168 L82.8390246,12.0993168 C83.0761873,12.0993168 83.2896337,12.3106376 83.2896337,12.5454384 L83.2896337,13.5785621 C83.6216615,12.9211198 84.6177448,11.9349563 86.3490324,11.9349563 C87.985455,11.9349563 89.0289708,12.5219583 89.5981612,13.7429227 C89.9776215,13.1794007 91.1160025,11.9114762 93.0844528,11.9114762 C95.5509448,11.9114762 97.0450697,13.3907214 97.0450697,15.9970107 L97.0450697,23.5106375 C97.0450697,23.7454383 96.8316233,23.9567591 96.5944606,23.9567591 Z M111.108817,18.0162979 C111.108817,21.5148304 108.428879,24.1445997 104.824006,24.1445997 C101.242849,24.1445997 98.5391946,21.5148304 98.5391946,18.0162979 C98.5391946,14.5177654 101.242849,11.9114762 104.824006,11.9114762 C108.428879,11.9114762 111.108817,14.5177654 111.108817,18.0162979 Z M104.824006,20.8808681 C106.294415,20.8808681 107.527661,19.6833838 107.527661,18.0162979 C107.527661,16.3726921 106.294415,15.1986879 104.824006,15.1986879 C103.377314,15.1986879 102.120351,16.3726921 102.120351,18.0162979 C102.120351,19.6833838 103.377314,20.8808681 104.824006,20.8808681 Z" id="Olumo-Copy-16" fill="#0E172C"></path>
            </g>
        </g>
    </g>
</svg>